<?xml version="1.0" encoding="UTF-8"?>
<svg width="58px" height="37px" viewBox="0 0 58 37" version="1.1" xmlns="http://www.w3.org/2000/svg" xmlns:xlink="http://www.w3.org/1999/xlink">
    <!-- Generator: Sketch 60.1 (88133) - https://sketch.com -->
    <title>Getting your car ready@1</title>
    <desc>Created with Sketch.</desc>
    <g id="Main-1.1" stroke="none" stroke-width="1" fill="none" fill-rule="evenodd">
        <g id="Main-Page" transform="translate(-200.000000, -2824.000000)">
            <g id="Getting-your-car-ready" transform="translate(200.000000, 2826.000000)">
                <polyline id="Stroke-11" stroke="#0076FF" stroke-width="4" points="4 6.66666667 9.33333333 12 20 0"></polyline>
                <g id="car-(10)" transform="translate(0.000000, 9.000000)" fill="#484848" fill-rule="nonzero">
                    <path d="M45.1013616,16.2304872 C42.4516492,16.2304872 40.2960367,18.3862121 40.2960367,21.0358121 C40.2960367,23.6855245 42.4517617,25.841137 45.1013616,25.841137 C47.7510741,25.841137 49.9066865,23.685412 49.9066865,21.0358121 C49.9066865,18.3860996 47.7509616,16.2304872 45.1013616,16.2304872 Z M45.1013616,23.9190745 C43.5117366,23.9190745 42.2180992,22.6254371 42.2180992,21.0358121 C42.2180992,19.4461871 43.5117366,18.1525496 45.1013616,18.1525496 C46.6909866,18.1525496 47.984624,19.4461871 47.984624,21.0358121 C47.9845115,22.6254371 46.6909866,23.9190745 45.1013616,23.9190745 Z" id="Shape"></path>
                    <path d="M12.4248373,16.2304872 C9.77512481,16.2304872 7.61951235,18.3862121 7.61951235,21.0358121 C7.61951235,23.6855245 9.77523731,25.841137 12.4248373,25.841137 C15.0745497,25.841137 17.2301622,23.685412 17.2301622,21.0358121 C17.2301622,18.3860996 15.0745497,16.2304872 12.4248373,16.2304872 Z M12.4248373,23.9190745 C10.8352123,23.9190745 9.54157481,22.6254371 9.54157481,21.0358121 C9.54157481,19.4461871 10.8352123,18.1525496 12.4248373,18.1525496 C14.0144622,18.1525496 15.3080997,19.4461871 15.3080997,21.0358121 C15.3080997,22.6254371 14.0144622,23.9190745 12.4248373,23.9190745 Z" id="Shape"></path>
                    <path d="M56.6341864,13.1146872 L56.6341864,8.54189983 C56.6341864,8.51118733 56.5976239,8.33051233 56.5784989,8.26796234 C56.5592614,8.20451234 56.5361989,8.14691234 56.5054864,8.08919984 C56.4910864,8.06321234 52.6285115,2.24201246 52.6285115,2.24201246 C52.481474,2.02196246 52.2498365,1.87098746 51.9874865,1.82688746 C27.9106869,-2.21444996 21.7396121,1.81057496 21.4590371,2.00666246 L13.9944372,7.60488735 L1.77918746,8.54381233 C1.43324997,8.57069983 1.12848748,8.78118733 0.98246248,9.09551232 C0.894037482,9.28383732 -1.14626248,13.7874372 0.926774982,21.2915246 C1.04208748,21.7086746 1.42076247,21.9968996 1.85321246,21.9968996 L4.73624991,21.9968996 C5.2667999,21.9968996 5.69733739,21.5663621 5.69733739,21.0358121 C5.69733739,17.3260122 8.71514983,14.3083122 12.4248373,14.3083122 C16.1345247,14.3083122 19.1523371,17.3261247 19.1523371,21.0358121 C19.1523371,21.5663621 19.5828746,21.9968996 20.1134246,21.9968996 L37.4127743,21.9968996 C37.9433242,21.9968996 38.3738617,21.5663621 38.3738617,21.0358121 C38.3738617,17.3260122 41.3916742,14.3083122 45.1013616,14.3083122 C48.8111615,14.3083122 51.8288615,17.3261247 51.8288615,21.0358121 C51.8288615,21.5663621 52.259399,21.9968996 52.789949,21.9968996 L55.6732114,21.9968996 C56.0201614,21.9968996 56.3402239,21.8094746 56.5112239,21.5067371 C58.6159863,17.7643121 57.1042114,14.0824122 56.6341864,13.1146872 Z M51.2589365,3.65388743 L53.8769239,7.58081235 L43.7366241,7.58081235 L40.7168992,2.29679995 C43.7480991,2.55824995 47.2358241,2.98777494 51.2589365,3.65388743 Z M32.6073369,1.96717496 C34.2892118,1.94219996 36.2238743,1.98449996 38.4458617,2.12478746 C38.4650992,2.17957496 38.4708367,2.23728746 38.5006492,2.29004995 L41.5241992,7.58081235 L32.6073369,7.58182485 L32.6073369,1.96717496 L32.6073369,1.96717496 Z M22.5689621,3.57412493 C22.6025996,3.55297493 24.618937,2.33144995 30.6852744,2.02781246 L30.6852744,7.58182485 L17.2254372,7.58283735 L22.5689621,3.57412493 Z M55.0849489,20.0747246 L53.6981614,20.0747246 C53.2185739,15.7556247 49.546349,12.3861373 45.1013616,12.3861373 C40.6563742,12.3861373 36.9841493,15.7556247 36.5045618,20.0747246 L21.0216371,20.0747246 C20.5420496,15.7556247 16.8698247,12.3861373 12.4248373,12.3861373 C7.97984984,12.3861373 4.30762491,15.7556247 3.82803742,20.0747246 L2.59492495,20.0747246 C2.03467496,17.7979496 1.90102496,15.8709372 1.94816246,14.3083122 L2.81317494,14.3083122 C3.34372493,14.3083122 3.77426243,13.8777747 3.77426243,13.3472247 C3.77426243,12.8166747 3.34372493,12.3861373 2.81317494,12.3861373 L2.10768746,12.3861373 C2.23739996,11.5039123 2.40941245,10.8253123 2.54114995,10.4140123 L14.3470122,9.50287481 L54.7121239,9.50287481 L54.7121239,11.4250498 L53.7510364,11.4250498 C53.2204864,11.4250498 52.789949,11.8555873 52.789949,12.3861373 C52.789949,12.9166872 53.2204864,13.3472247 53.7510364,13.3472247 L54.7121239,13.3472247 C54.7121239,13.5096747 54.7553239,13.6730247 54.8341864,13.8152247 C54.9061864,13.9469622 56.5237114,16.9377747 55.0849489,20.0747246 Z" id="Shape"></path>
                </g>
            </g>
        </g>
    </g>
</svg>