<?xml version="1.0" encoding="UTF-8"?>
<svg width="55px" height="66px" viewBox="0 0 55 66" version="1.1" xmlns="http://www.w3.org/2000/svg" xmlns:xlink="http://www.w3.org/1999/xlink">
    <!-- Generator: sketchtool 52.5 (67469) - http://www.bohemiancoding.com/sketch -->
    <title>4D3964E5-3A47-423F-ADDA-37197EEEC6D3</title>
    <desc>Created with sketchtool.</desc>
    <g id="Web" stroke="none" stroke-width="1" fill="none" fill-rule="evenodd">
        <g id="Syarah-Online-Main-Page-Header" transform="translate(-658.000000, -1287.000000)">
            <g id="Gurentee" transform="translate(660.000000, 1289.000000)">
                <path d="M25.5143605,0 C23.03415,3.53534783 6.49270263,10.7826087 -0.000402631579,10.7826087 L-0.000402631579,36.3913043 C-0.000402631579,48.430087 24.0836763,61.6023913 25.4995974,61.9824783 C26.9168605,61.6023913 50.9995974,47.5108696 50.9995974,37.7391304 L50.9995974,10.7826087 C43.9173079,10.7826087 27.9932289,3.53534783 25.5143605,0 Z" id="Stroke-1" stroke="#484848" stroke-width="2.69999993" stroke-linejoin="round"></path>
                <path d="M25.5081445,13.4782609 C24.0722331,15.4760664 14.4956057,19.5714536 10.7364395,19.5714536 L10.7364395,34.0427862 C10.7364395,40.8458358 24.6798536,48.2894323 25.4995974,48.5042174 C26.3201181,48.2894323 40.2627553,40.3263912 40.2627553,34.8044353 L40.2627553,19.5714536 C36.1624824,19.5714536 26.9432788,15.4760664 25.5081445,13.4782609 Z" id="Stroke-1" fill="#0076FF"></path>
                <path d="M25.5,55.2608696 C26.6179737,54.963 45.6315789,42.6896957 45.6315789,35.0434783 L45.6315789,16.173913" id="Stroke-3" stroke="#484848" stroke-width="2.69999993" stroke-linejoin="round"></path>
                <path d="M25.5,8.08695652 C23.5432105,10.8540435 10.4939211,16.173913 5.36842105,16.173913 L5.36842105,36.3913043" id="Stroke-5" stroke="#484848" stroke-width="2.69999993" stroke-linejoin="round"></path>
                <polyline id="Stroke-7" stroke="#FFFFFF" stroke-width="2.69999993" points="17.4473684 31 22.8157895 36.3913043 33.5526316 24.2608696"></polyline>
            </g>
        </g>
    </g>
</svg>