<?xml version="1.0" encoding="UTF-8"?>
<svg width="58px" height="47px" viewBox="0 0 58 47" version="1.1" xmlns="http://www.w3.org/2000/svg" xmlns:xlink="http://www.w3.org/1999/xlink">
    <!-- Generator: sketchtool 52.5 (67469) - http://www.bohemiancoding.com/sketch -->
    <title>CA06D375-60BF-4402-BADF-EF2C4F44C6C7</title>
    <desc>Created with sketchtool.</desc>
    <g id="Web" stroke="none" stroke-width="1" fill="none" fill-rule="evenodd">
        <g id="Syarah-Online-Main-Page---Dropdown" transform="translate(-1183.000000, -2317.000000)">
            <g id="Search_On_Web" transform="translate(1185.000000, 2319.000000)">
                <g id="Group-9" stroke="#505050" stroke-width="2.4000001">
                    <polyline id="Stroke-1" points="46.6304348 29.8611111 46.6304348 43 0 43 0 0 46.6304348 0 46.6304348 15.5277778"></polyline>
                    <path d="M0,7.16666667 L46.6304348,7.16666667" id="Stroke-3"></path>
                    <path d="M3.58695652,3.58333333 L5.97826087,3.58333333" id="Stroke-5"></path>
                    <path d="M7.17391304,3.58333333 L9.56521739,3.58333333" id="Stroke-7"></path>
                </g>
                <polygon id="Stroke-10" stroke="#505050" stroke-width="2.4000001" points="4.7826087 26.2777778 17.9347826 26.2777778 17.9347826 11.9444444 4.7826087 11.9444444"></polygon>
                <polygon id="Stroke-10" fill="#0076FF" points="7.17391304 23.8888889 15.5434783 23.8888889 15.5434783 14.3333333 7.17391304 14.3333333"></polygon>
                <path d="M3.58695652,32.25 L19.1304348,32.25" id="Stroke-11" stroke="#505050" stroke-width="2.4000001"></path>
                <path d="M3.58695652,37.0277778 L19.1304348,37.0277778" id="Stroke-12" stroke="#505050" stroke-width="2.4000001"></path>
                <path d="M22.7173913,37.0277778 L35.8695652,37.0277778" id="Stroke-13" stroke="#505050" stroke-width="2.4000001"></path>
                <path d="M22.7173913,32.25 L35.8695652,32.25" id="Stroke-14" stroke="#505050" stroke-width="2.4000001"></path>
                <path d="M22.7173913,13.1388889 L35.8695652,13.1388889" id="Stroke-15" stroke="#505050" stroke-width="2.4000001"></path>
                <path d="M22.7173913,17.9166667 L31.0869565,17.9166667" id="Stroke-16" stroke="#505050" stroke-width="2.4000001"></path>
                <polyline id="Stroke-17" stroke="#505050" stroke-width="2.4000001" points="34.673913 21.5 41.8478261 28.6666667 55 11.9444444"></polyline>
            </g>
        </g>
    </g>
</svg>