<?xml version="1.0" encoding="UTF-8"?>
<svg width="41px" height="17px" viewBox="0 0 41 17" version="1.1" xmlns="http://www.w3.org/2000/svg" xmlns:xlink="http://www.w3.org/1999/xlink">
    <!-- Generator: Sketch 57.1 (83088) - https://sketch.com -->
    <title>share copy</title>
    <desc>Created with Sketch.</desc>
    <defs>
        <linearGradient x1="-1.11022302e-14%" y1="50%" x2="99.1013367%" y2="50%" id="linearGradient-1">
            <stop stop-color="#4B6CFF" offset="0%"></stop>
            <stop stop-color="#06ADD1" offset="100%"></stop>
        </linearGradient>
    </defs>
    <g id="Main-Page-1.1" stroke="none" stroke-width="1" fill="none" fill-rule="evenodd">
        <g id="share-copy" transform="translate(21.856406, 9.856406) rotate(-330.000000) translate(-21.856406, -9.856406) translate(5.856406, -6.143594)" fill="url(#linearGradient-1)">
            <path d="M31.693,8.0965 L31.694,8.0955 C31.695,8.094 31.696,8.0925 31.697,8.0905 C31.783,7.993 31.846,7.8755 31.8965,7.7515 C31.9125,7.7135 31.923,7.6775 31.9345,7.639 C31.9635,7.5435 31.9815,7.4445 31.9875,7.341 C31.9905,7.303 31.9965,7.267 31.9955,7.228 C31.9955,7.208 32.0005,7.19 31.9996322,7.1705 C31.9925,7.051 31.9685,6.9355 31.9315,6.827 C31.9285,6.8155 31.9205,6.8065 31.9165,6.795 C31.8725,6.6755 31.8095,6.5695 31.735,6.4725 C31.7245,6.459 31.721,6.441 31.71,6.4275 L26.5545,0.3545 C26.16,-0.1105 25.5125,-0.1195 25.1075,0.336 C24.7035,0.791 24.696,1.537 25.0915,2.003 L27.8705,5.2775 C23.81,4.7395 19.8185,5.594 19.63,5.636 C7.307,7.8695 -1.4135,19.2495 0.19,31.004 C0.2695,31.586 0.704,32 1.1995,32 C1.2525,32 1.3055,31.9955 1.3595,31.9865 C1.9175,31.885 2.2985,31.282 2.2115,30.6385 C0.783,20.1685 8.7395,9.9975 19.98,7.9595 C20.0315,7.9475 24.1555,7.0625 28.0385,7.6725 L23.75,10.219 C23.2475,10.518 23.051,11.229 23.3095,11.8075 C23.5675,12.387 24.1835,12.6115 24.6875,12.316 L31.4475,8.302 C31.539,8.2465 31.621,8.177 31.693,8.0965 Z" id="Path"></path>
        </g>
    </g>
</svg>