<?xml version="1.0" encoding="UTF-8"?>
<svg width="53px" height="63px" viewBox="0 0 53 63" version="1.1" xmlns="http://www.w3.org/2000/svg" xmlns:xlink="http://www.w3.org/1999/xlink">
    <!-- Generator: sketchtool 52.5 (67469) - http://www.bohemiancoding.com/sketch -->
    <title>8CDE2265-D1C6-4E5B-912C-44B1B327A654</title>
    <desc>Created with sketchtool.</desc>
    <g id="Web" stroke="none" stroke-width="1" fill="none" fill-rule="evenodd">
        <g id="Syarah-Online-Main-Page---Dropdown" transform="translate(-925.000000, -2299.000000)">
            <g id="Add_info" transform="translate(927.000000, 2301.000000)">
                <path d="M10.7560976,29.9019608 C13.4929268,29.9019608 15.5365854,27.6078824 15.5365854,24.7767647 L15.5365854,23.0663725 C15.5365854,20.2352549 13.4929268,17.9411765 10.7560976,17.9411765 C8.01926829,17.9411765 5.97560976,20.2352549 5.97560976,23.0663725 L5.97560976,24.7767647 C5.97560976,27.6078824 8.01926829,29.9019608 10.7560976,29.9019608 Z" id="Stroke-1" stroke="#505050" stroke-width="2.4000001"></path>
                <path d="M20.3176707,35.8823529 C18.7245732,35.0355294 15.636378,33.5894706 13.146939,33.4901961 L7.17132927,33.4901961 C2.8880122,33.4901961 0.000597560976,35.2986667 0.000597560976,40.6666667 L0.000597560976,45.4509804 C0.000597560976,50.2352941 3.87040244,51.4313725 7.17132927,51.4313725 L11.9518171,51.4313725" id="Stroke-3" stroke="#505050" stroke-width="2.4000001" stroke-linejoin="round"></path>
                <path d="M5.97560976,39.4705882 L5.97560976,44.254902 C5.97560976,44.9151373 6.51102439,45.4509804 7.17073171,45.4509804 L14.3414634,45.4509804" id="Stroke-5" stroke="#505050" stroke-width="2.4000001" stroke-linejoin="round"></path>
                <path d="M4.7804878,51.4313725 L4.7804878,61" id="Stroke-7" stroke="#505050" stroke-width="2.4000001" stroke-linejoin="round"></path>
                <path d="M17.9268293,53.8235294 L17.9268293,61" id="Stroke-9" stroke="#505050" stroke-width="2.4000001" stroke-linejoin="round"></path>
                <path d="M26.0102756,49.0392157 L21.5118366,49.0392157 L23.9020805,44.254902 L27.9439829,44.254902 C28.8331537,44.254902 29.4103976,45.1902353 29.0136171,45.9856275 L28.1483488,47.717549 C27.7432024,48.5272941 26.916178,49.0392157 26.0102756,49.0392157 Z" id="Stroke-11" stroke="#505050" stroke-width="2.4000001" stroke-linejoin="round"></path>
                <path d="M10.7560976,39.4705882 L16.7317073,43.0588235" id="Stroke-13" stroke="#505050" stroke-width="2.4000001" stroke-linejoin="round"></path>
                <polyline id="Stroke-15" stroke="#505050" stroke-width="2.4000001" stroke-linejoin="round" points="27.4878049 44.254902 29.8780488 39.4705882 17.9268293 39.4705882 10.7560976 53.8235294 22.7073171 53.8235294 25.097561 49.0392157"></polyline>
                <path d="M13.1463415,13.1568627 L13.1463415,3.58823529 C13.1463415,1.60633333 14.7513902,1.20792265e-13 16.7317073,1.20792265e-13 L45.4146341,1.20792265e-13 C47.3949512,1.20792265e-13 49,1.60633333 49,3.58823529 L49,22.7254902 C49,24.7073922 47.3949512,26.3137255 45.4146341,26.3137255 L35.8536585,26.3137255 L27.1376341,35.0367255 C26.3847073,35.7902549 25.097561,35.2568039 25.097561,34.191098 L25.097561,26.3137255 L20.3170732,26.3137255" id="Stroke-5" stroke="#505050" stroke-width="2.4000001"></path>
                <path d="M15.5365854,15.2565031 L15.5365854,5.25275119 C15.5365854,3.67274959 16.8206244,2.39215686 18.404878,2.39215686 L43.7414634,2.39215686 C45.3257171,2.39215686 46.6097561,3.67274959 46.6097561,5.25275119 L46.6097561,20.5092543 C46.6097561,22.0892559 45.3257171,23.3698486 43.7414634,23.3698486 L34.897561,23.3698486 L29.1198634,30.3239534 C28.517522,30.9246782 27.4878049,30.4994032 27.4878049,29.6498067 L27.4878049,23.3698486 L21.2731707,23.3698486" id="Stroke-5" fill="#0076FF"></path>
                <polyline id="Stroke-11" stroke="#FFFFFF" stroke-width="2.4000001" points="25.097561 13.1568627 29.8780488 17.9411765 39.4390244 7.17647059"></polyline>
            </g>
        </g>
    </g>
</svg>