<?xml version="1.0" encoding="UTF-8"?>
<svg width="104px" height="113px" viewBox="0 0 104 113" version="1.1" xmlns="http://www.w3.org/2000/svg" xmlns:xlink="http://www.w3.org/1999/xlink">
    <!-- Generator: sketchtool 52.5 (67469) - http://www.bohemiancoding.com/sketch -->
    <title>1606E1D1-5C61-430B-87FA-499E07D8BBDC</title>
    <desc>Created with sketchtool.</desc>
    <g id="Web" stroke="none" stroke-width="1" fill="none" fill-rule="evenodd">
        <g id="Syarah-Online-Main-Page---Menu" transform="translate(-923.000000, -3946.000000)">
            <g id="Customer-Service" transform="translate(0.000000, 3886.000000)">
                <g id="Group-10" transform="translate(416.000000, 50.000000)">
                    <g id="Customer-Service" transform="translate(509.000000, 13.000000)">
                        <path d="M25.3000695,70.8888889 C19.5007516,70.8888889 15.4831962,66.198 15.4831962,60.4144444 L15.4831962,56.9188889 C15.4831962,51.1353333 19.5007516,46.4444444 25.3000695,46.4444444 C31.0993874,46.4444444 35.1169427,51.1353333 35.1169427,56.9188889 L35.1169427,60.4144444 C35.1169427,66.198 31.0993874,70.8888889 25.3000695,70.8888889 Z" id="Stroke-1" stroke="#484848" stroke-width="4.85999974"></path>
                        <path d="M0.757886365,107.555556 L5.66632299,88 C7.14867085,81.8888889 10.083916,78.2222222 15.4831962,78.2222222 L20.3916329,78.2222222 L37.5245309,97.7777778 L52.2498408,97.7777778 C52.2498408,97.7777778 53.3468764,107.555556 44.8871858,107.555556 L30.2085061,107.555556 L17.9374146,92.8888889" id="Stroke-3" stroke="#484848" stroke-width="4.85999974"></path>
                        <polyline id="Stroke-5" stroke="#484848" stroke-width="4.85999974" stroke-linejoin="round" points="40.0253794 90.4444444 49.8422526 73.3333333 94.0181822 73.3333333 79.2928724 100.222222 57.2049076 100.222222"></polyline>
                        <path d="M20.3916329,107.555556 L98.9266189,107.555556" id="Stroke-7" stroke="#484848" stroke-width="4.85999974" stroke-linejoin="round"></path>
                        <path d="M47.3880343,0 L91.5639639,0 C95.6306037,0 98.9266189,3.28288889 98.9266189,7.33333333 L98.9266189,36.6666667 C98.9266189,42.0664444 94.5311139,46.4444444 89.1097456,46.4444444 L67.0217808,46.4444444 L56.7140639,60.1333333 C55.3004341,62.0131111 52.2964709,61.0157778 52.2964709,58.6666667 L52.2964709,46.4444444 L47.3880343,46.4444444 C43.3213946,46.4444444 40.0253794,43.1615556 40.0253794,39.1111111 L40.0253794,7.33333333 C40.0253794,3.28288889 43.3213946,0 47.3880343,0 Z" id="Stroke-9" stroke="#484848" stroke-width="4.85999974" stroke-linejoin="round"></path>
                        <path d="M51.3268093,5.71568627 L87.7719512,5.71568627 C89.9069371,5.71568627 91.6373451,7.4779868 91.6373451,9.65232186 L91.6373451,34.146472 C91.6373451,37.045148 89.3297049,39.3953195 86.4834866,39.3953195 L66.0521192,39.3953195 L60.6405678,46.7437059 C59.8984122,47.7527968 58.3213315,47.2174144 58.3213315,45.9563788 L58.3213315,39.3953195 L51.3268093,39.3953195 C49.1918234,39.3953195 47.4614154,37.6330189 47.4614154,35.4586839 L47.4614154,9.65232186 C47.4614154,7.4779868 49.1918234,5.71568627 51.3268093,5.71568627 Z" id="Stroke-9" fill="#0076FF"></path>
                        <polyline id="Stroke-11" stroke="#FFFFFF" stroke-width="3.40199976" points="59.732507 23.6416122 66.8720512 30.1601307 79.3662535 15.4934641"></polyline>
                    </g>
                </g>
            </g>
        </g>
    </g>
</svg>